<?xml version="1.0" encoding="iso-8859-1"?>
<!-- Generator: Adobe Illustrator 21.0.2, SVG Export Plug-In . SVG Version: 6.00 Build 0)  -->
<svg version="1.1" id="Capa_1" xmlns="http://www.w3.org/2000/svg" xmlns:xlink="http://www.w3.org/1999/xlink" x="0px" y="0px"
	 viewBox="-49 141 512 512" style="enable-background:new -49 141 512 512;" xml:space="preserve">
<path style="fill:#E4C216;" d="M160.859,367.453l50.831-41.151l-95.525-0.601c-7.466-0.074-14.724,2.459-20.524,7.161
	l-15.563,12.641c-0.856,0.698-0.983,1.958-0.285,2.814c0.279,0.342,0.664,0.582,1.093,0.683L160.859,367.453z"/>
<path style="fill:#E4C216;" d="M326.399,253.651l-0.01,0.008L76.25,456.353c-8.124,6.654-19.173,8.49-29.013,4.822l-43.443-8.697
	c-3.271-0.659-6.664,0.18-9.251,2.287c-4.798,3.896-5.529,10.943-1.633,15.741c1.021,1.258,2.303,2.278,3.757,2.992l65.474,32.132
	c0.124,0.061,0.247,0.125,0.368,0.192c4.371,2.559,9.786,2.547,14.146-0.031l128.641-83.333c3.708-2.402,8.662-1.343,11.064,2.365
	c0.926,1.43,1.372,3.119,1.272,4.819l-6.764,114.629c0.005,1.105,0.904,1.996,2.009,1.991c0.455-0.002,0.895-0.159,1.249-0.445
	l22.844-18.555c5.96-4.841,9.981-11.662,11.331-19.221c0.014-0.082,0.035-0.157,0.049-0.243l27.13-128.859
	c0.391-1.842,1.417-3.489,2.898-4.652l89.317-69.901c12.57-10.262,13.518-30.017,2.212-43.936
	C358.394,246.277,339.232,243.227,326.399,253.651L326.399,253.651z"/>
</svg>
