<?xml version="1.0" encoding="iso-8859-1"?>
<!-- Generator: Adobe Illustrator 21.0.2, SVG Export Plug-In . SVG Version: 6.00 Build 0)  -->
<svg version="1.1" id="Capa_1" xmlns="http://www.w3.org/2000/svg" xmlns:xlink="http://www.w3.org/1999/xlink" x="0px" y="0px"
	 viewBox="-49 141 512 512" style="enable-background:new -49 141 512 512;" xml:space="preserve">
<g>
	<g>
		<defs>
			<rect id="SVGID_1_" x="30.38" y="193.33" width="353.24" height="407.34"/>
		</defs>
		<clipPath id="SVGID_2_">
			<use xlink:href="#SVGID_1_"  style="overflow:visible;"/>
		</clipPath>
		<path style="clip-path:url(#SVGID_2_);fill:#FFFFFF;" d="M382.868,587.282l-30.959-294.823
			c-0.65-6.172-5.852-10.859-12.059-10.859h-58.189v-13.267c0-41.355-33.648-75.002-75.003-75.002
			c-41.358,0-75.005,33.648-75.005,75.002v13.267h-58.19c-6.206,0-11.409,4.687-12.058,10.859L30.445,587.282
			c-0.357,3.415,0.752,6.825,3.049,9.379c2.3,2.551,5.575,4.009,9.009,4.009h328.304c3.437,0,6.712-1.458,9.009-4.009
			C382.119,594.106,383.225,590.697,382.868,587.282L382.868,587.282z M155.9,268.332c0-27.985,22.77-50.755,50.758-50.755
			c27.986,0,50.756,22.77,50.756,50.755v13.267H155.9V268.332z M55.966,576.423L84.38,305.847h47.272v26.717
			c0,6.694,5.429,12.123,12.123,12.123c6.694,0,12.124-5.429,12.124-12.123v-26.717h101.514v26.717
			c0,6.694,5.429,12.123,12.123,12.123c6.695,0,12.124-5.429,12.124-12.123v-26.717h47.272l28.414,270.576H55.966z M55.966,576.423"
			/>
	</g>
</g>
</svg>
